<svg xmlns="http://www.w3.org/2000/svg" viewBox="0 0 900 440" font-family="-apple-system, BlinkMacSystemFont, PingFang SC, Hiragino Sans GB, sans-serif">
<rect width="900" height="440" fill="#ffffff"/>
<g transform="translate(24, 24)"><rect x="9" y="0" width="3" height="3" fill="#4a3323"/><rect x="12" y="0" width="3" height="3" fill="#4a3323"/><rect x="39" y="0" width="3" height="3" fill="#4a3323"/><rect x="42" y="0" width="3" height="3" fill="#4a3323"/><rect x="6" y="3" width="3" height="3" fill="#4a3323"/><rect x="9" y="3" width="3" height="3" fill="#f5a35c"/><rect x="12" y="3" width="3" height="3" fill="#f5a35c"/><rect x="15" y="3" width="3" height="3" fill="#4a3323"/><rect x="36" y="3" width="3" height="3" fill="#4a3323"/><rect x="39" y="3" width="3" height="3" fill="#f5a35c"/><rect x="42" y="3" width="3" height="3" fill="#f5a35c"/><rect x="45" y="3" width="3" height="3" fill="#4a3323"/><rect x="3" y="6" width="3" height="3" fill="#4a3323"/><rect x="6" y="6" width="3" height="3" fill="#f5a35c"/><rect x="9" y="6" width="3" height="3" fill="#f5a35c"/><rect x="12" y="6" width="3" height="3" fill="#ffb39a"/><rect x="15" y="6" width="3" height="3" fill="#4a3323"/><rect x="30" y="6" width="3" height="3" fill="#4a3323"/><rect x="33" y="6" width="3" height="3" fill="#ffb39a"/><rect x="36" y="6" width="3" height="3" fill="#ffb39a"/><rect x="39" y="6" width="3" height="3" fill="#f5a35c"/><rect x="42" y="6" width="3" height="3" fill="#4a3323"/><rect x="3" y="9" width="3" height="3" fill="#4a3323"/><rect x="6" y="9" width="3" height="3" fill="#f5a35c"/><rect x="9" y="9" width="3" height="3" fill="#ffb39a"/><rect x="12" y="9" width="3" height="3" fill="#4a3323"/><rect x="15" y="9" width="3" height="3" fill="#4a3323"/><rect x="18" y="9" width="3" height="3" fill="#4a3323"/><rect x="27" y="9" width="3" height="3" fill="#4a3323"/><rect x="30" y="9" width="3" height="3" fill="#4a3323"/><rect x="33" y="9" width="3" height="3" fill="#4a3323"/><rect x="36" y="9" width="3" height="3" fill="#ffb39a"/><rect x="39" y="9" width="3" height="3" fill="#f5a35c"/><rect x="42" y="9" width="3" height="3" fill="#4a3323"/><rect x="0" y="12" width="3" height="3" fill="#4a3323"/><rect x="3" y="12" width="3" height="3" fill="#4a3323"/><rect x="6" y="12" width="3" height="3" fill="#4a3323"/><rect x="9" y="12" width="3" height="3" fill="#4a3323"/><rect x="12" y="12" width="3" height="3" fill="#4a3323"/><rect x="15" y="12" width="3" height="3" fill="#4a3323"/><rect x="18" y="12" width="3" height="3" fill="#4a3323"/><rect x="21" y="12" width="3" height="3" fill="#4a3323"/><rect x="24" y="12" width="3" height="3" fill="#4a3323"/><rect x="27" y="12" width="3" height="3" fill="#4a3323"/><rect x="30" y="12" width="3" height="3" fill="#4a3323"/><rect x="33" y="12" width="3" height="3" fill="#4a3323"/><rect x="36" y="12" width="3" height="3" fill="#4a3323"/><rect x="39" y="12" width="3" height="3" fill="#4a3323"/><rect x="42" y="12" width="3" height="3" fill="#4a3323"/><rect x="45" y="12" width="3" height="3" fill="#4a3323"/><rect x="48" y="12" width="3" height="3" fill="#4a3323"/><rect x="51" y="12" width="3" height="3" fill="#4a3323"/><rect x="0" y="15" width="3" height="3" fill="#4a3323"/><rect x="3" y="15" width="3" height="3" fill="#f5a35c"/><rect x="6" y="15" width="3" height="3" fill="#f5a35c"/><rect x="9" y="15" width="3" height="3" fill="#f5a35c"/><rect x="12" y="15" width="3" height="3" fill="#f5a35c"/><rect x="15" y="15" width="3" height="3" fill="#f5a35c"/><rect x="18" y="15" width="3" height="3" fill="#f5a35c"/><rect x="21" y="15" width="3" height="3" fill="#f5a35c"/><rect x="24" y="15" width="3" height="3" fill="#f5a35c"/><rect x="27" y="15" width="3" height="3" fill="#f5a35c"/><rect x="30" y="15" width="3" height="3" fill="#f5a35c"/><rect x="33" y="15" width="3" height="3" fill="#f5a35c"/><rect x="36" y="15" width="3" height="3" fill="#f5a35c"/><rect x="39" y="15" width="3" height="3" fill="#f5a35c"/><rect x="42" y="15" width="3" height="3" fill="#f5a35c"/><rect x="45" y="15" width="3" height="3" fill="#f5a35c"/><rect x="48" y="15" width="3" height="3" fill="#f5a35c"/><rect x="51" y="15" width="3" height="3" fill="#4a3323"/><rect x="0" y="18" width="3" height="3" fill="#4a3323"/><rect x="3" y="18" width="3" height="3" fill="#f5a35c"/><rect x="6" y="18" width="3" height="3" fill="#f5a35c"/><rect x="9" y="18" width="3" height="3" fill="#f5a35c"/><rect x="12" y="18" width="3" height="3" fill="#f5a35c"/><rect x="15" y="18" width="3" height="3" fill="#f5a35c"/><rect x="18" y="18" width="3" height="3" fill="#f5a35c"/><rect x="21" y="18" width="3" height="3" fill="#f5a35c"/><rect x="24" y="18" width="3" height="3" fill="#f5a35c"/><rect x="27" y="18" width="3" height="3" fill="#f5a35c"/><rect x="30" y="18" width="3" height="3" fill="#f5a35c"/><rect x="33" y="18" width="3" height="3" fill="#f5a35c"/><rect x="36" y="18" width="3" height="3" fill="#f5a35c"/><rect x="39" y="18" width="3" height="3" fill="#f5a35c"/><rect x="42" y="18" width="3" height="3" fill="#f5a35c"/><rect x="45" y="18" width="3" height="3" fill="#f5a35c"/><rect x="48" y="18" width="3" height="3" fill="#f5a35c"/><rect x="51" y="18" width="3" height="3" fill="#4a3323"/><rect x="0" y="21" width="3" height="3" fill="#4a3323"/><rect x="3" y="21" width="3" height="3" fill="#f5a35c"/><rect x="6" y="21" width="3" height="3" fill="#3d2b1f"/><rect x="9" y="21" width="3" height="3" fill="#ffffff"/><rect x="12" y="21" width="3" height="3" fill="#f5a35c"/><rect x="15" y="21" width="3" height="3" fill="#f5a35c"/><rect x="18" y="21" width="3" height="3" fill="#f5a35c"/><rect x="21" y="21" width="3" height="3" fill="#f5a35c"/><rect x="24" y="21" width="3" height="3" fill="#f5a35c"/><rect x="27" y="21" width="3" height="3" fill="#f5a35c"/><rect x="30" y="21" width="3" height="3" fill="#f5a35c"/><rect x="33" y="21" width="3" height="3" fill="#ffffff"/><rect x="36" y="21" width="3" height="3" fill="#3d2b1f"/><rect x="39" y="21" width="3" height="3" fill="#f5a35c"/><rect x="42" y="21" width="3" height="3" fill="#f5a35c"/><rect x="45" y="21" width="3" height="3" fill="#f5a35c"/><rect x="48" y="21" width="3" height="3" fill="#4a3323"/><rect x="0" y="24" width="3" height="3" fill="#4a3323"/><rect x="3" y="24" width="3" height="3" fill="#f5a35c"/><rect x="6" y="24" width="3" height="3" fill="#f5a35c"/><rect x="9" y="24" width="3" height="3" fill="#f5a35c"/><rect x="12" y="24" width="3" height="3" fill="#f5a35c"/><rect x="15" y="24" width="3" height="3" fill="#f5a35c"/><rect x="18" y="24" width="3" height="3" fill="#f5a35c"/><rect x="21" y="24" width="3" height="3" fill="#f5a35c"/><rect x="24" y="24" width="3" height="3" fill="#f5a35c"/><rect x="27" y="24" width="3" height="3" fill="#f5a35c"/><rect x="30" y="24" width="3" height="3" fill="#f5a35c"/><rect x="33" y="24" width="3" height="3" fill="#f5a35c"/><rect x="36" y="24" width="3" height="3" fill="#f5a35c"/><rect x="39" y="24" width="3" height="3" fill="#f5a35c"/><rect x="42" y="24" width="3" height="3" fill="#f5a35c"/><rect x="45" y="24" width="3" height="3" fill="#f5a35c"/><rect x="48" y="24" width="3" height="3" fill="#f5a35c"/><rect x="51" y="24" width="3" height="3" fill="#4a3323"/><rect x="0" y="27" width="3" height="3" fill="#fff1de"/><rect x="3" y="27" width="3" height="3" fill="#f5a35c"/><rect x="6" y="27" width="3" height="3" fill="#f5a35c"/><rect x="9" y="27" width="3" height="3" fill="#fff1de"/><rect x="12" y="27" width="3" height="3" fill="#fff1de"/><rect x="15" y="27" width="3" height="3" fill="#fff1de"/><rect x="18" y="27" width="3" height="3" fill="#ff8a80"/><rect x="21" y="27" width="3" height="3" fill="#ff8a80"/><rect x="24" y="27" width="3" height="3" fill="#ff8a80"/><rect x="27" y="27" width="3" height="3" fill="#fff1de"/><rect x="30" y="27" width="3" height="3" fill="#fff1de"/><rect x="33" y="27" width="3" height="3" fill="#fff1de"/><rect x="36" y="27" width="3" height="3" fill="#f5a35c"/><rect x="39" y="27" width="3" height="3" fill="#f5a35c"/><rect x="42" y="27" width="3" height="3" fill="#f5a35c"/><rect x="45" y="27" width="3" height="3" fill="#fff1de"/><rect x="0" y="30" width="3" height="3" fill="#fff1de"/><rect x="3" y="30" width="3" height="3" fill="#f5a35c"/><rect x="6" y="30" width="3" height="3" fill="#f5a35c"/><rect x="9" y="30" width="3" height="3" fill="#fff1de"/><rect x="12" y="30" width="3" height="3" fill="#f5a35c"/><rect x="15" y="30" width="3" height="3" fill="#fff1de"/><rect x="18" y="30" width="3" height="3" fill="#4a3323"/><rect x="21" y="30" width="3" height="3" fill="#4a3323"/><rect x="24" y="30" width="3" height="3" fill="#4a3323"/><rect x="27" y="30" width="3" height="3" fill="#fff1de"/><rect x="30" y="30" width="3" height="3" fill="#f5a35c"/><rect x="33" y="30" width="3" height="3" fill="#fff1de"/><rect x="36" y="30" width="3" height="3" fill="#f5a35c"/><rect x="39" y="30" width="3" height="3" fill="#f5a35c"/><rect x="42" y="30" width="3" height="3" fill="#f5a35c"/><rect x="45" y="30" width="3" height="3" fill="#fff1de"/><rect x="0" y="33" width="3" height="3" fill="#4a3323"/><rect x="3" y="33" width="3" height="3" fill="#f5a35c"/><rect x="6" y="33" width="3" height="3" fill="#f5a35c"/><rect x="9" y="33" width="3" height="3" fill="#f5a35c"/><rect x="12" y="33" width="3" height="3" fill="#f5a35c"/><rect x="15" y="33" width="3" height="3" fill="#fff1de"/><rect x="18" y="33" width="3" height="3" fill="#fff1de"/><rect x="21" y="33" width="3" height="3" fill="#f5a35c"/><rect x="24" y="33" width="3" height="3" fill="#f5a35c"/><rect x="27" y="33" width="3" height="3" fill="#fff1de"/><rect x="30" y="33" width="3" height="3" fill="#fff1de"/><rect x="33" y="33" width="3" height="3" fill="#f5a35c"/><rect x="36" y="33" width="3" height="3" fill="#f5a35c"/><rect x="39" y="33" width="3" height="3" fill="#f5a35c"/><rect x="42" y="33" width="3" height="3" fill="#f5a35c"/><rect x="45" y="33" width="3" height="3" fill="#4a3323"/><rect x="0" y="36" width="3" height="3" fill="#4a3323"/><rect x="3" y="36" width="3" height="3" fill="#4a3323"/><rect x="6" y="36" width="3" height="3" fill="#4a3323"/><rect x="9" y="36" width="3" height="3" fill="#f5a35c"/><rect x="12" y="36" width="3" height="3" fill="#f5a35c"/><rect x="15" y="36" width="3" height="3" fill="#f5a35c"/><rect x="18" y="36" width="3" height="3" fill="#f5a35c"/><rect x="21" y="36" width="3" height="3" fill="#f5a35c"/><rect x="24" y="36" width="3" height="3" fill="#f5a35c"/><rect x="27" y="36" width="3" height="3" fill="#f5a35c"/><rect x="30" y="36" width="3" height="3" fill="#f5a35c"/><rect x="33" y="36" width="3" height="3" fill="#f5a35c"/><rect x="36" y="36" width="3" height="3" fill="#f5a35c"/><rect x="39" y="36" width="3" height="3" fill="#f5a35c"/><rect x="42" y="36" width="3" height="3" fill="#f5a35c"/><rect x="45" y="36" width="3" height="3" fill="#4a3323"/><rect x="48" y="36" width="3" height="3" fill="#4a3323"/><rect x="3" y="39" width="3" height="3" fill="#4a3323"/><rect x="6" y="39" width="3" height="3" fill="#4a3323"/><rect x="9" y="39" width="3" height="3" fill="#4a3323"/><rect x="12" y="39" width="3" height="3" fill="#4a3323"/><rect x="15" y="39" width="3" height="3" fill="#4a3323"/><rect x="18" y="39" width="3" height="3" fill="#4a3323"/><rect x="21" y="39" width="3" height="3" fill="#4a3323"/><rect x="24" y="39" width="3" height="3" fill="#4a3323"/><rect x="27" y="39" width="3" height="3" fill="#4a3323"/><rect x="30" y="39" width="3" height="3" fill="#4a3323"/><rect x="33" y="39" width="3" height="3" fill="#4a3323"/><rect x="36" y="39" width="3" height="3" fill="#4a3323"/><rect x="39" y="39" width="3" height="3" fill="#4a3323"/><rect x="42" y="39" width="3" height="3" fill="#4a3323"/><rect x="45" y="39" width="3" height="3" fill="#4a3323"/><rect x="48" y="39" width="3" height="3" fill="#4a3323"/><rect x="18" y="42" width="3" height="3" fill="#4a3323"/><rect x="21" y="42" width="3" height="3" fill="#4a3323"/><rect x="36" y="42" width="3" height="3" fill="#4a3323"/><rect x="39" y="42" width="3" height="3" fill="#4a3323"/></g>
<text x="92" y="44" font-size="22" font-weight="700" fill="#2e3a59">DSKIN · Star History</text>
<text x="92" y="64" font-size="13" fill="#7a869e">星标趋势 · 每日自动更新 · 30 stars</text>
<line x1="90" y1="370.0" x2="840" y2="370.0" stroke="#eceff5" stroke-width="1"/>
<text x="80" y="374.0" font-size="12" fill="#9aa3b5" text-anchor="end">0</text>
<line x1="90" y1="295.0" x2="840" y2="295.0" stroke="#eceff5" stroke-width="1"/>
<text x="80" y="299.0" font-size="12" fill="#9aa3b5" text-anchor="end">7.5</text>
<line x1="90" y1="220.0" x2="840" y2="220.0" stroke="#eceff5" stroke-width="1"/>
<text x="80" y="224.0" font-size="12" fill="#9aa3b5" text-anchor="end">15</text>
<line x1="90" y1="145.0" x2="840" y2="145.0" stroke="#eceff5" stroke-width="1"/>
<text x="80" y="149.0" font-size="12" fill="#9aa3b5" text-anchor="end">22.5</text>
<line x1="90" y1="70.0" x2="840" y2="70.0" stroke="#eceff5" stroke-width="1"/>
<text x="80" y="74.0" font-size="12" fill="#9aa3b5" text-anchor="end">30</text>
<line x1="90" y1="370" x2="840" y2="370" stroke="#d5dae4" stroke-width="1.5"/>
<line x1="90" y1="60" x2="90" y2="370" stroke="#d5dae4" stroke-width="1.5"/>
<text x="90" y="392" font-size="12" fill="#9aa3b5" text-anchor="middle">2026-08-14</text>
<text x="840" y="392" font-size="12" fill="#9aa3b5" text-anchor="middle">2026-08-15</text>
<polygon points="90,370 90.0,360.0 119.0,350.0 124.6,340.0 142.0,330.0 147.2,320.0 156.1,310.0 170.2,300.0 173.3,290.0 194.2,280.0 202.3,270.0 215.0,260.0 217.1,250.0 232.4,240.0 249.7,230.0 255.6,220.0 351.1,210.0 353.1,200.0 579.4,190.0 584.8,180.0 611.5,170.0 684.5,160.0 754.6,150.0 801.3,140.0 802.3,130.0 815.1,120.0 829.8,110.0 832.4,100.0 832.8,90.0 839.2,80.0 840.0,70.0 840.0,370" fill="url(#area)" stroke="none"/>
<defs><linearGradient id="area" x1="0" y1="0" x2="0" y2="1"><stop offset="0" stop-color="#ff9f1c" stop-opacity="0.25"/><stop offset="1" stop-color="#ff9f1c" stop-opacity="0"/></linearGradient></defs>
<path d="M90.0 360.0 L119.0 350.0 L124.6 340.0 L142.0 330.0 L147.2 320.0 L156.1 310.0 L170.2 300.0 L173.3 290.0 L194.2 280.0 L202.3 270.0 L215.0 260.0 L217.1 250.0 L232.4 240.0 L249.7 230.0 L255.6 220.0 L351.1 210.0 L353.1 200.0 L579.4 190.0 L584.8 180.0 L611.5 170.0 L684.5 160.0 L754.6 150.0 L801.3 140.0 L802.3 130.0 L815.1 120.0 L829.8 110.0 L832.4 100.0 L832.8 90.0 L839.2 80.0 L840.0 70.0" fill="none" stroke="#ff9f1c" stroke-width="2.5" stroke-linejoin="round" stroke-linecap="round"/>
<circle cx="90.0" cy="360.0" r="4" fill="#ff9f1c" stroke="#ffffff" stroke-width="1.5"/>
<circle cx="119.0" cy="350.0" r="4" fill="#ff9f1c" stroke="#ffffff" stroke-width="1.5"/>
<circle cx="124.6" cy="340.0" r="4" fill="#ff9f1c" stroke="#ffffff" stroke-width="1.5"/>
<circle cx="142.0" cy="330.0" r="4" fill="#ff9f1c" stroke="#ffffff" stroke-width="1.5"/>
<circle cx="147.2" cy="320.0" r="4" fill="#ff9f1c" stroke="#ffffff" stroke-width="1.5"/>
<circle cx="156.1" cy="310.0" r="4" fill="#ff9f1c" stroke="#ffffff" stroke-width="1.5"/>
<circle cx="170.2" cy="300.0" r="4" fill="#ff9f1c" stroke="#ffffff" stroke-width="1.5"/>
<circle cx="173.3" cy="290.0" r="4" fill="#ff9f1c" stroke="#ffffff" stroke-width="1.5"/>
<circle cx="194.2" cy="280.0" r="4" fill="#ff9f1c" stroke="#ffffff" stroke-width="1.5"/>
<circle cx="202.3" cy="270.0" r="4" fill="#ff9f1c" stroke="#ffffff" stroke-width="1.5"/>
<circle cx="215.0" cy="260.0" r="4" fill="#ff9f1c" stroke="#ffffff" stroke-width="1.5"/>
<circle cx="217.1" cy="250.0" r="4" fill="#ff9f1c" stroke="#ffffff" stroke-width="1.5"/>
<circle cx="232.4" cy="240.0" r="4" fill="#ff9f1c" stroke="#ffffff" stroke-width="1.5"/>
<circle cx="249.7" cy="230.0" r="4" fill="#ff9f1c" stroke="#ffffff" stroke-width="1.5"/>
<circle cx="255.6" cy="220.0" r="4" fill="#ff9f1c" stroke="#ffffff" stroke-width="1.5"/>
<circle cx="351.1" cy="210.0" r="4" fill="#ff9f1c" stroke="#ffffff" stroke-width="1.5"/>
<circle cx="353.1" cy="200.0" r="4" fill="#ff9f1c" stroke="#ffffff" stroke-width="1.5"/>
<circle cx="579.4" cy="190.0" r="4" fill="#ff9f1c" stroke="#ffffff" stroke-width="1.5"/>
<circle cx="584.8" cy="180.0" r="4" fill="#ff9f1c" stroke="#ffffff" stroke-width="1.5"/>
<circle cx="611.5" cy="170.0" r="4" fill="#ff9f1c" stroke="#ffffff" stroke-width="1.5"/>
<circle cx="684.5" cy="160.0" r="4" fill="#ff9f1c" stroke="#ffffff" stroke-width="1.5"/>
<circle cx="754.6" cy="150.0" r="4" fill="#ff9f1c" stroke="#ffffff" stroke-width="1.5"/>
<circle cx="801.3" cy="140.0" r="4" fill="#ff9f1c" stroke="#ffffff" stroke-width="1.5"/>
<circle cx="802.3" cy="130.0" r="4" fill="#ff9f1c" stroke="#ffffff" stroke-width="1.5"/>
<circle cx="815.1" cy="120.0" r="4" fill="#ff9f1c" stroke="#ffffff" stroke-width="1.5"/>
<circle cx="829.8" cy="110.0" r="4" fill="#ff9f1c" stroke="#ffffff" stroke-width="1.5"/>
<circle cx="832.4" cy="100.0" r="4" fill="#ff9f1c" stroke="#ffffff" stroke-width="1.5"/>
<circle cx="832.8" cy="90.0" r="4" fill="#ff9f1c" stroke="#ffffff" stroke-width="1.5"/>
<circle cx="839.2" cy="80.0" r="4" fill="#ff9f1c" stroke="#ffffff" stroke-width="1.5"/>
<circle cx="840.0" cy="70.0" r="4" fill="#ff9f1c" stroke="#ffffff" stroke-width="1.5"/>
<rect x="848.0" y="48.0" width="34" height="22" rx="4" fill="#2e3a59"/>
<text x="865.0" y="64.0" font-size="13" font-weight="700" fill="#ffffff" text-anchor="middle">30</text>
<text x="450.0" y="424" font-size="12" fill="#aab2c3" text-anchor="middle">由 GitHub Actions 每日自动更新 · auto-updated daily by GitHub Actions</text>
</svg>